 <svg fill="none" xmlns="http://www.w3.org/2000/svg" viewBox="0 0 100 36">
                <path d="M54.582 9.354h-9.45V26.65h9.45V9.354Z" fill="#FF5F00" />
                <path
                    d="M45.732 18c0-3.508 1.614-6.634 4.125-8.647A10.63 10.63 0 0 0 43.182 7c-5.964 0-10.8 4.925-10.8 11 0 6.074 4.837 11 10.8 11 2.52 0 4.836-.88 6.675-2.353A11.052 11.052 0 0 1 45.732 18Z"
                    fill="#EB001B" />
                <path
                    d="M67.33 18c0 6.074-4.835 11-10.799 11-2.52 0-4.835-.88-6.674-2.353A11.057 11.057 0 0 0 53.982 18c0-3.508-1.614-6.634-4.125-8.647A10.63 10.63 0 0 1 56.53 7c5.964 0 10.8 4.925 10.8 11ZM66.299 24.818v-.355h.14v-.07h-.356v.073h.14v.355h.076v-.003Zm.693 0v-.428h-.108l-.126.293-.126-.293h-.111v.428h.078v-.32l.117.277h.08l.118-.278v.324h.078v-.003Z"
                    fill="#F79E1B" />
            </svg>